<svg id="Group_4031" data-name="Group 4031" xmlns="http://www.w3.org/2000/svg" width="100.692" height="29.205" viewBox="0 0 100.692 29.205">
  <path id="Path_46198" data-name="Path 46198" d="M3259.648,354.7a2.8,2.8,0,0,1,2.8,2.8V379.3a2.8,2.8,0,0,1-2.8,2.8h-93.292a2.8,2.8,0,0,1-2.8-2.8V357.5a2.8,2.8,0,0,1,2.8-2.8h93.292m0-.9h-93.292a3.7,3.7,0,0,0-3.7,3.7V379.3a3.7,3.7,0,0,0,3.7,3.7h93.292a3.7,3.7,0,0,0,3.7-3.7V357.5a3.7,3.7,0,0,0-3.7-3.7Z" transform="translate(-3162.656 -353.797)" fill="#646464"/>
  <path id="Path_46199" data-name="Path 46199" d="M3938.106,459.917h1.621c1.708,0,2.475-1,2.475-2.649v-.158a2.226,2.226,0,0,0-2.491-2.507h-1.605v5.314Zm.7-.6v-4.1h.838c1.155,0,1.811.459,1.811,1.9v.261c0,1.36-.53,1.945-1.708,1.945Z" transform="translate(-3907.689 -450.649)" fill="#646464"/>
  <path id="Path_46200" data-name="Path 46200" d="M4060.663,491.951a1.777,1.777,0,0,0,1.8-1.985v-.126a1.735,1.735,0,0,0-1.8-1.969,1.778,1.778,0,0,0-1.8,1.993V490a1.716,1.716,0,0,0,1.787,1.953Zm.016-.554c-.609,0-1.107-.324-1.107-1.384v-.221c0-.878.4-1.368,1.083-1.368.609,0,1.107.34,1.107,1.4v.214c0,.878-.4,1.36-1.083,1.36Z" transform="translate(-4023.722 -482.611)" fill="#646464"/>
  <path id="Path_46201" data-name="Path 46201" d="M4163.22,493.816h.688l.878-2.894h.031l.878,2.894h.672l1.115-3.93h-.648l-.767,3.068h-.032l-.917-3.068h-.585l-.91,3.068h-.024l-.775-3.068h-.72l1.115,3.93Z" transform="translate(-4122.902 -484.548)" fill="#646464"/>
  <path id="Path_46202" data-name="Path 46202" d="M4317.352,491.88h.672v-3.163a2.632,2.632,0,0,1,1.036-.261c.617,0,.767.19.767.641v2.784h.665v-2.926c0-.759-.364-1.083-1.139-1.083a2.4,2.4,0,0,0-1.32.419h-.04v-.34h-.641v3.931Z" transform="translate(-4272.06 -482.611)" fill="#646464"/>
  <path id="Path_46203" data-name="Path 46203" d="M4424.612,451.4h.68v-5.662h-.68V451.4Z" transform="translate(-4375.112 -442.127)" fill="#646464"/>
  <path id="Path_46204" data-name="Path 46204" d="M4465.514,491.951a1.777,1.777,0,0,0,1.8-1.985v-.126a1.734,1.734,0,0,0-1.795-1.969,1.778,1.778,0,0,0-1.8,1.993V490a1.716,1.716,0,0,0,1.787,1.953Zm.016-.554c-.609,0-1.107-.324-1.107-1.384v-.221c0-.878.4-1.368,1.083-1.368.609,0,1.107.34,1.107,1.4v.214c0,.878-.4,1.36-1.083,1.36Z" transform="translate(-4412.694 -482.611)" fill="#646464"/>
  <path id="Path_46205" data-name="Path 46205" d="M4571,491.951a1.289,1.289,0,0,0,1.028-.4h.04l.071.332h.538v-2.847c0-.791-.5-1.163-1.368-1.163a3.262,3.262,0,0,0-1.2.214v.482a4.583,4.583,0,0,1,.941-.111c.7,0,.965.142.965.743v.364l-1.044.127c-.743.095-1.186.467-1.186,1.147a1.072,1.072,0,0,0,1.218,1.115Zm.166-.522c-.411,0-.687-.2-.687-.609,0-.427.213-.609.664-.656l.87-.087v1.083a1.317,1.317,0,0,1-.846.269Z" transform="translate(-4514.584 -482.611)" fill="#646464"/>
  <path id="Path_46206" data-name="Path 46206" d="M4666.16,451.467a1.565,1.565,0,0,0,1.131-.388h.039l.063.316h.57v-5.662h-.672v1.9a1.949,1.949,0,0,0-1-.245c-1,0-1.748.625-1.748,2.056v.111c0,1.447.87,1.914,1.621,1.914Zm.222-.554c-.68,0-1.139-.324-1.139-1.384v-.174c0-1.028.412-1.392,1.131-1.392a1.605,1.605,0,0,1,.917.229V450.6a1.444,1.444,0,0,1-.91.308Z" transform="translate(-4605.629 -442.127)" fill="#646464"/>
  <path id="Path_46207" data-name="Path 46207" d="M4827.825,491.951a1.777,1.777,0,0,0,1.8-1.985v-.126a1.735,1.735,0,0,0-1.795-1.969,1.778,1.778,0,0,0-1.8,1.993V490a1.716,1.716,0,0,0,1.788,1.953Zm.015-.554c-.608,0-1.107-.324-1.107-1.384v-.221c0-.878.4-1.368,1.083-1.368.609,0,1.107.34,1.107,1.4v.214c0,.878-.4,1.36-1.084,1.36Z" transform="translate(-4760.792 -482.611)" fill="#646464"/>
  <path id="Path_46208" data-name="Path 46208" d="M4938.541,491.88h.672v-3.163a2.634,2.634,0,0,1,1.036-.261c.617,0,.767.19.767.641v2.784h.664v-2.926c0-.759-.363-1.083-1.139-1.083a2.4,2.4,0,0,0-1.32.419h-.04v-.34h-.641v3.931Z" transform="translate(-4868.883 -482.611)" fill="#646464"/>
  <path id="Path_46209" data-name="Path 46209" d="M5090.972,471a1.436,1.436,0,0,0,.68-.15v-.459a2.147,2.147,0,0,1-.5.063c-.443,0-.569-.142-.569-.514V467.59h.988v-.561h-.988v-.933h-.672v.933h-.562v.561h.562v2.444c0,.7.435.965,1.059.965Z" transform="translate(-5013.778 -461.69)" fill="#646464"/>
  <path id="Path_46210" data-name="Path 46210" d="M5167.781,451.4h.672v-3.163a2.634,2.634,0,0,1,1.036-.261c.617,0,.767.19.767.641V451.4h.665v-2.926c0-.759-.364-1.083-1.139-1.083a2.374,2.374,0,0,0-1.29.4h-.039v-2.056h-.672V451.4Z" transform="translate(-5089.131 -442.127)" fill="#646464"/>
  <path id="Path_46211" data-name="Path 46211" d="M5270.264,491.951a2.227,2.227,0,0,0,1.329-.38v-.5a2.374,2.374,0,0,1-1.218.3c-.783,0-1.241-.332-1.289-1.265h2.625v-.38c0-1.234-.514-1.859-1.589-1.859a1.738,1.738,0,0,0-1.732,1.985v.119a1.752,1.752,0,0,0,1.875,1.977Zm-.174-3.535c.593,0,.909.324.909,1.147h-1.914c.063-.9.561-1.147,1-1.147Z" transform="translate(-5185.794 -482.611)" fill="#646464"/>
  <path id="Path_46212" data-name="Path 46212" d="M3888.942,681.006h1.5l1-2.872h4.045l1.019,2.872h1.668l-3.8-10.577h-1.606l-3.83,10.577Zm4.478-8.57h.046l1.56,4.432h-3.15l1.544-4.432Z" transform="translate(-3860.454 -658.009)" fill="#646464"/>
  <path id="Path_46213" data-name="Path 46213" d="M4154.664,745.729h1.513V743a3.917,3.917,0,0,0,1.93.463c2.162,0,3.551-1.1,3.551-4.015v-.216c0-2.9-1.5-3.845-3.211-3.845a3.354,3.354,0,0,0-2.254.788h-.062v-.633h-1.467v10.191Zm3.258-3.459a3.087,3.087,0,0,1-1.745-.494v-4.6a3.163,3.163,0,0,1,1.822-.51c1.328,0,2.069.6,2.069,2.656v.324c0,2.007-.788,2.625-2.146,2.625Z" transform="translate(-4115.753 -720.417)" fill="#646464"/>
  <path id="Path_46214" data-name="Path 46214" d="M4373.539,745.729h1.513V743a3.92,3.92,0,0,0,1.93.463c2.162,0,3.552-1.1,3.552-4.015v-.216c0-2.9-1.5-3.845-3.212-3.845a3.354,3.354,0,0,0-2.254.788h-.062v-.633h-1.467v10.191Zm3.258-3.459a3.091,3.091,0,0,1-1.745-.494v-4.6a3.166,3.166,0,0,1,1.822-.51c1.328,0,2.069.6,2.069,2.656v.324c0,2.007-.788,2.625-2.146,2.625Z" transform="translate(-4326.043 -720.417)" fill="#646464"/>
  <path id="Path_46215" data-name="Path 46215" d="M4686.438,676.655c2.517,0,3.659-1.235,3.659-3.165,0-1.822-1-2.517-2.594-3.026l-1.05-.324c-1.1-.34-1.421-.741-1.421-1.652,0-.942.664-1.451,1.837-1.451a6.579,6.579,0,0,1,2.671.556v-1.3a5.457,5.457,0,0,0-2.671-.587c-2.27,0-3.413,1.2-3.413,2.918a2.805,2.805,0,0,0,2.347,2.934l1.035.34c1.2.386,1.621.787,1.621,1.714,0,1.05-.633,1.714-2.131,1.714a7.064,7.064,0,0,1-2.98-.664v1.3a6.343,6.343,0,0,0,3.088.695Z" transform="translate(-4623.701 -653.473)" fill="#646464"/>
  <path id="Path_46216" data-name="Path 46216" d="M4882.682,701.887a3.078,3.078,0,0,0,1.4-.293v-1.019a6.685,6.685,0,0,1-.973.093c-.849,0-1.081-.263-1.081-.973v-4.54h1.9v-1.22h-1.9v-1.853H4880.5v1.853h-1.112v1.22h1.112v4.756c0,1.436.865,1.976,2.177,1.976Z" transform="translate(-4812.056 -678.813)" fill="#646464"/>
  <path id="Path_46217" data-name="Path 46217" d="M5028.705,743.552c2.146,0,3.645-1.482,3.645-3.984v-.232c0-2.486-1.344-3.953-3.629-3.953-2.193,0-3.675,1.5-3.675,4v.263c0,2.455,1.328,3.907,3.659,3.907Zm.016-1.189c-1.173,0-2.115-.618-2.115-2.7v-.417c0-1.729.756-2.64,2.084-2.64,1.143,0,2.069.618,2.069,2.7v.417c0,1.729-.756,2.64-2.038,2.64Z" transform="translate(-4951.995 -720.417)" fill="#646464"/>
  <path id="Path_46218" data-name="Path 46218" d="M5251.008,744.927h1.513V738.9a3.732,3.732,0,0,1,2.007-.571,4.689,4.689,0,0,1,.618.046v-1.359a1.369,1.369,0,0,0-.494-.062,2.945,2.945,0,0,0-2.115.973h-.062v-.88h-1.467v7.875Z" transform="translate(-5169.094 -721.93)" fill="#646464"/>
  <path id="Path_46219" data-name="Path 46219" d="M5381.974,743.552a4.676,4.676,0,0,0,2.717-.757V741.73a5.468,5.468,0,0,1-2.439.571c-1.544,0-2.424-.6-2.532-2.409h5.219v-.741c0-2.486-1.034-3.768-3.258-3.768-1.9,0-3.521,1.282-3.521,3.984v.2c0,2.47,1.266,3.984,3.814,3.984Zm-.355-6.964c1.143,0,1.729.6,1.729,2.193h-3.628c.123-1.76,1.065-2.193,1.9-2.193Z" transform="translate(-5291.259 -720.417)" fill="#646464"/>
  <g id="Group_4030" data-name="Group 4030" transform="translate(7.867 5.338)">
    <path id="Path_46220" data-name="Path 46220" d="M3366.126,578.312a10.051,10.051,0,0,1-1,1.8,9.282,9.282,0,0,1-1.286,1.561,2.529,2.529,0,0,1-1.655.729,4.043,4.043,0,0,1-1.529-.369,4.385,4.385,0,0,0-1.647-.361,4.545,4.545,0,0,0-1.694.361,4.661,4.661,0,0,1-1.466.384,2.361,2.361,0,0,1-1.694-.753,9.722,9.722,0,0,1-1.349-1.616,11.251,11.251,0,0,1-1.427-2.831,10.324,10.324,0,0,1-.6-3.372,6.149,6.149,0,0,1,.808-3.223,4.807,4.807,0,0,1,1.694-1.717,4.531,4.531,0,0,1,2.29-.651,5.383,5.383,0,0,1,1.773.416,5.736,5.736,0,0,0,1.4.416,8.611,8.611,0,0,0,1.561-.486,5.238,5.238,0,0,1,2.117-.376,4.5,4.5,0,0,1,3.529,1.859,4.069,4.069,0,0,0-.784,6.525,4.469,4.469,0,0,0,1.286.847c-.094.3-.2.58-.322.855Z" transform="translate(-3350.771 -564.18)" fill="#212121"/>
    <path id="Path_46221" data-name="Path 46221" d="M3581,446.109a3.935,3.935,0,0,1-1.02,2.6,3.468,3.468,0,0,1-2.878,1.419,2.51,2.51,0,0,1-.023-.353,4.1,4.1,0,0,1,1.082-2.635,4.041,4.041,0,0,1,1.317-.988,3.919,3.919,0,0,1,1.506-.423c.007.125.016.251.016.376Z" transform="translate(-3569.618 -445.733)" fill="#212121"/>
  </g>
</svg>
