<svg xmlns="http://www.w3.org/2000/svg" width="19.95" height="24" viewBox="0 0 19.95 24">
  <g id="attebdabce_summary" data-name="attebdabce summary" transform="translate(-55.7 -15.1)">
    <path id="Path_161773" data-name="Path 161773" d="M344.127,36.4H348.1l-4.8-4.8v3.975a.889.889,0,0,0,.827.827Z" transform="translate(-273.274 -15.678)" fill="#0e99ff"/>
    <path id="Path_161774" data-name="Path 161774" d="M75.506,22.3H70.853a2.4,2.4,0,0,1-2.4-2.4V15.1H57.2a1.5,1.5,0,0,0-1.5,1.5V37.451A1.648,1.648,0,0,0,57.349,39.1H74.076a1.584,1.584,0,0,0,1.574-1.574V22.3h-.144ZM59.64,18.323h5.624a.789.789,0,0,1,.787.787h0a.789.789,0,0,1-.787.787H59.64a.789.789,0,0,1-.787-.787h0A.789.789,0,0,1,59.64,18.323Zm-.125,17.918-1.474-1.474a.235.235,0,0,1,0-.329l.8-.8a.235.235,0,0,1,.329,0l.349.349a.235.235,0,0,0,.329,0l1.624-1.624a.235.235,0,0,1,.329,0l.8.8a.235.235,0,0,1,0,.329l-2.75,2.75A.235.235,0,0,1,59.516,36.241Zm0-4.877L58.041,29.89a.235.235,0,0,1,0-.329l.8-.8a.235.235,0,0,1,.329,0l.349.349a.235.235,0,0,0,.329,0l1.624-1.624a.235.235,0,0,1,.329,0l.8.8a.235.235,0,0,1,0,.329l-2.75,2.75A.235.235,0,0,1,59.516,31.364Zm0-4.877-1.474-1.474a.235.235,0,0,1,0-.329l.8-.8a.235.235,0,0,1,.329,0l.349.349a.235.235,0,0,0,.329,0l1.624-1.624a.235.235,0,0,1,.329,0l.8.8a.235.235,0,0,1,0,.329l-2.75,2.75A.235.235,0,0,1,59.516,26.487Zm12.2,7.816H65.264a.789.789,0,0,1-.787-.787h0a.789.789,0,0,1,.787-.787h6.451a.789.789,0,0,1,.787.787h0A.789.789,0,0,1,71.715,34.3Zm0-3.975H65.264a.789.789,0,0,1-.787-.787h0a.789.789,0,0,1,.787-.787h6.451a.789.789,0,0,1,.787.787h0A.789.789,0,0,1,71.715,30.328Zm0-4.055H65.264a.789.789,0,0,1-.787-.787h0a.789.789,0,0,1,.787-.787h6.451a.789.789,0,0,1,.787.787h0A.789.789,0,0,1,71.715,26.273Z" fill="#0e99ff"/>
  </g>
</svg>
