<svg xmlns="http://www.w3.org/2000/svg" width="25" height="24" viewBox="0 0 25 24">
  <g id="attendance_" data-name="attendance " transform="translate(-4 -4.56)">
    <path id="Path_161762" data-name="Path 161762" d="M27.313,10.79H24.821v1.684a1.034,1.034,0,0,1-1.04,1.019h-.692a1.034,1.034,0,0,1-1.04-1.019V10.79H17.888v1.684a1.034,1.034,0,0,1-1.04,1.019h-.7a1.034,1.034,0,0,1-1.04-1.019V10.79H10.951v1.684a1.034,1.034,0,0,1-1.04,1.019H9.219a1.034,1.034,0,0,1-1.04-1.019V10.79H5.688A1.675,1.675,0,0,0,4,12.443v2.663H29V12.443A1.675,1.675,0,0,0,27.313,10.79Z" transform="translate(0 -3.506)" fill="#0e99ff"/>
    <path id="Path_161763" data-name="Path 161763" d="M31.667,5.575a1.03,1.03,0,0,0-1.04-1.015h-.7a1.03,1.03,0,0,0-1.04,1.015v1.71h2.777Z" transform="translate(-13.778)" fill="#0e99ff"/>
    <path id="Path_161764" data-name="Path 161764" d="M16.132,5.575a1.03,1.03,0,0,0-1.04-1.015H14.4a1.03,1.03,0,0,0-1.04,1.015v1.71h2.772Z" transform="translate(-5.181)" fill="#0e99ff"/>
    <path id="Path_161765" data-name="Path 161765" d="M47.2,5.575a1.03,1.03,0,0,0-1.04-1.015H45.47a1.03,1.03,0,0,0-1.04,1.015v1.71H47.2Z" transform="translate(-22.381)" fill="#0e99ff"/>
    <path id="Path_161766" data-name="Path 161766" d="M4,37.091a1.675,1.675,0,0,0,1.687,1.653H27.313A1.675,1.675,0,0,0,29,37.091V22.66H4ZM21.223,25.476a.858.858,0,0,1,.866-.848h2.929a.858.858,0,0,1,.866.848v2.869a.858.858,0,0,1-.866.848H22.089a.858.858,0,0,1-.866-.848Zm0,6.818a.858.858,0,0,1,.866-.848h2.929a.858.858,0,0,1,.866.848v2.869a.858.858,0,0,1-.866.848H22.089a.858.858,0,0,1-.866-.848ZM14.17,25.476a.858.858,0,0,1,.866-.848h2.929a.858.858,0,0,1,.866.848v2.869a.858.858,0,0,1-.866.848H15.036a.858.858,0,0,1-.866-.848Zm0,6.818a.858.858,0,0,1,.866-.848h2.929a.858.858,0,0,1,.866.848v2.869a.858.858,0,0,1-.866.848H15.036a.858.858,0,0,1-.866-.848ZM7.116,25.476a.858.858,0,0,1,.866-.848h2.929a.858.858,0,0,1,.866.848v2.869a.858.858,0,0,1-.866.848H7.982a.858.858,0,0,1-.866-.848Zm0,6.818a.858.858,0,0,1,.866-.848h2.929a.858.858,0,0,1,.866.848v2.869a.858.858,0,0,1-.866.848H7.982a.858.858,0,0,1-.866-.848Z" transform="translate(0 -10.185)" fill="#0e99ff"/>
    <path id="Path_161767" data-name="Path 161767" d="M14.062,32.162a.459.459,0,0,0,.317.131h.009a.429.429,0,0,0,.321-.149l1.071-1.181a.43.43,0,0,0-.036-.617.452.452,0,0,0-.629.035l-.754.831-.237-.236a.447.447,0,0,0-.629,0,.429.429,0,0,0,0,.617Z" transform="translate(-5.183 -14.447)" fill="#0e99ff"/>
    <path id="Path_161768" data-name="Path 161768" d="M29.862,32.162a.459.459,0,0,0,.317.131h.009a.429.429,0,0,0,.321-.149l1.071-1.181a.43.43,0,0,0-.036-.617.452.452,0,0,0-.629.035l-.754.831-.237-.236a.451.451,0,0,0-.629-.009.433.433,0,0,0-.009.617l.571.573Z" transform="translate(-13.928 -14.447)" fill="#0e99ff"/>
    <path id="Path_161769" data-name="Path 161769" d="M45.662,47.752a.459.459,0,0,0,.317.131h.009a.429.429,0,0,0,.321-.149l1.071-1.181a.43.43,0,0,0-.036-.617.452.452,0,0,0-.629.035l-.754.831-.237-.236a.451.451,0,0,0-.629,0,.429.429,0,0,0,0,.617Z" transform="translate(-22.676 -23.22)" fill="#0e99ff"/>
    <path id="Path_161770" data-name="Path 161770" d="M14.062,47.752a.459.459,0,0,0,.317.131h.009a.429.429,0,0,0,.321-.149l1.071-1.181a.43.43,0,0,0-.036-.617.452.452,0,0,0-.629.035l-.754.831-.237-.236a.451.451,0,0,0-.629,0,.429.429,0,0,0,0,.617Z" transform="translate(-5.183 -23.22)" fill="#0e99ff"/>
    <path id="Path_161771" data-name="Path 161771" d="M29.469,47.618a.443.443,0,0,0,.317.127.462.462,0,0,0,.317-.127l.429-.42.429.42a.443.443,0,0,0,.317.127.462.462,0,0,0,.317-.127.429.429,0,0,0,0-.617l-.429-.42.429-.42a.429.429,0,0,0,0-.617.451.451,0,0,0-.629,0l-.429.42-.429-.42a.451.451,0,0,0-.629,0,.429.429,0,0,0,0,.617l.429.42-.429.42a.429.429,0,0,0,0,.617Z" transform="translate(-14.032 -22.99)" fill="#0e99ff"/>
    <path id="Path_161772" data-name="Path 161772" d="M45.269,32.028a.443.443,0,0,0,.317.127.462.462,0,0,0,.317-.127l.429-.42.429.42a.443.443,0,0,0,.317.127.462.462,0,0,0,.317-.127.429.429,0,0,0,0-.617l-.429-.42.429-.42a.429.429,0,0,0,0-.617.451.451,0,0,0-.629,0l-.429.42-.429-.42a.451.451,0,0,0-.629,0,.429.429,0,0,0,0,.617l.429.42-.429.42a.429.429,0,0,0,0,.617Z" transform="translate(-22.778 -14.218)" fill="#0e99ff"/>
  </g>
</svg>
