<svg xmlns="http://www.w3.org/2000/svg" width="15.638" height="15.638" viewBox="0 0 15.638 15.638">
  <g id="Icon_akar-edit" data-name="Icon akar-edit" transform="translate(-5.25 -3.612)">
    <path id="Path_161737" data-name="Path 161737" d="M21.008,6.483l1.744,1.743M22.13,4.947,17.413,9.664a1.744,1.744,0,0,0-.478.891L16.5,12.735l2.181-.436a1.742,1.742,0,0,0,.891-.477l4.716-4.716A1.526,1.526,0,0,0,22.13,4.947Z" transform="translate(-4.735 0)" fill="none" stroke="#0e99ff" stroke-linecap="round" stroke-linejoin="round" stroke-width="1.5"/>
    <path id="Path_161738" data-name="Path 161738" d="M18.353,15.735v2.471a1.647,1.647,0,0,1-1.647,1.647H7.647A1.647,1.647,0,0,1,6,18.206V9.147A1.647,1.647,0,0,1,7.647,7.5h2.471" transform="translate(0 -1.353)" fill="none" stroke="#0e99ff" stroke-linecap="round" stroke-linejoin="round" stroke-width="1.5"/>
  </g>
</svg>
