<svg xmlns="http://www.w3.org/2000/svg" width="24" height="22" viewBox="0 0 24 22">
  <path id="payslip" d="M1,4.2A2.2,2.2,0,0,1,3.182,2H22.818A2.2,2.2,0,0,1,25,4.2V21.8A2.2,2.2,0,0,1,22.818,24H3.182A2.2,2.2,0,0,1,1,21.8ZM18.455,14.76c0,.33-.327.77-1.091.77s-1.091-.44-1.091-.77a1.011,1.011,0,0,0-1.091-.99,1.011,1.011,0,0,0-1.091.99,2.91,2.91,0,0,0,2.182,2.64h0a1.127,1.127,0,0,0,1.091,1.21,1.011,1.011,0,0,0,1.091-.99h0a3.159,3.159,0,0,0,2.182-2.75A1.787,1.787,0,0,0,19.655,13a4.338,4.338,0,0,0-1.964-.77,10.81,10.81,0,0,1-1.2-.44l-.109-.11v-.22c0-.33.327-.77,1.091-.77s1.091.44,1.091.77a1.1,1.1,0,0,0,2.182,0,2.91,2.91,0,0,0-2.182-2.64h0a1.127,1.127,0,0,0-1.091-1.21,1.011,1.011,0,0,0-1.091.99h0A3.159,3.159,0,0,0,14.2,11.35a1.787,1.787,0,0,0,.982,1.87,4.338,4.338,0,0,0,1.964.77,10.81,10.81,0,0,1,1.2.44l.109.11Zm-12-5.06h4.364a1.035,1.035,0,0,0,1.091-1.1h0a1.035,1.035,0,0,0-1.091-1.1H6.455A1.035,1.035,0,0,0,5.364,8.6h0A1.035,1.035,0,0,0,6.455,9.7Zm2.182,4.4H6.455A1.035,1.035,0,0,1,5.364,13h0a1.035,1.035,0,0,1,1.091-1.1H8.636A1.035,1.035,0,0,1,9.727,13h0A1.035,1.035,0,0,1,8.636,14.1ZM6.455,18.5h4.364a1.035,1.035,0,0,0,1.091-1.1h0a1.035,1.035,0,0,0-1.091-1.1H6.455a1.035,1.035,0,0,0-1.091,1.1h0A1.035,1.035,0,0,0,6.455,18.5Z" transform="translate(-1 -2)" fill="#0e99ff" fill-rule="evenodd"/>
</svg>
