<svg xmlns="http://www.w3.org/2000/svg" width="23" height="20" viewBox="0 0 23 20">
  <g id="Employees" transform="translate(0 -22.25)">
    <path id="XMLID_440_" d="M188.146,30.662a5.521,5.521,0,0,0,2.119.379,4.4,4.4,0,1,0,0-8.792,5.556,5.556,0,0,0-2.119.445,6.934,6.934,0,0,1,1.23,1.826,6.333,6.333,0,0,1,0,4.249A7.278,7.278,0,0,1,188.146,30.662Z" transform="translate(-175.545 0)" fill="#0e99ff"/>
    <path id="XMLID_441_" d="M203.663,177.788A10.421,10.421,0,0,1,206.149,180a9.9,9.9,0,0,1,1.878,5.806,3.061,3.061,0,0,1-.186,1.051h4.146a1.066,1.066,0,0,0,1.08-1.051,8.179,8.179,0,0,0-8.28-8.056C204.52,177.75,203.927,177.763,203.663,177.788Z" transform="translate(-190.067 -144.607)" fill="#0e99ff"/>
    <path id="XMLID_443_" d="M56.768,31.042a4.556,4.556,0,0,0,3.6-1.744,4.291,4.291,0,0,0,0-5.3,4.556,4.556,0,0,0-3.6-1.744,4.4,4.4,0,1,0,0,8.792Z" transform="translate(-48.488 0)" fill="#0e99ff"/>
    <path id="XMLID_444_" d="M1.08,186.857h14.4a1.066,1.066,0,0,0,1.08-1.051,7.875,7.875,0,0,0-.07-1.051,7.966,7.966,0,0,0-2.455-4.735,8.327,8.327,0,0,0-2.156-1.469,8.421,8.421,0,0,0-3.6-.8A8.179,8.179,0,0,0,0,185.806,1.066,1.066,0,0,0,1.08,186.857Z" transform="translate(0 -144.607)" fill="#0e99ff"/>
  </g>
</svg>
