<svg id="excel_1_" data-name="excel (1)" xmlns="http://www.w3.org/2000/svg" width="16.417" height="15.327" viewBox="0 0 16.417 15.327">
  <g id="Group_89656" data-name="Group 89656" transform="translate(0 0)">
    <g id="Group_89655" data-name="Group 89655">
      <path id="Path_93739" data-name="Path 93739" d="M9.049,16.127a.518.518,0,0,0-.422-.108L.419,17.551a.51.51,0,0,0-.419.5V29.294a.511.511,0,0,0,.419.5l8.208,1.533a.493.493,0,0,0,.094.009.512.512,0,0,0,.513-.511V16.52A.509.509,0,0,0,9.049,16.127ZM8.208,30.21,1.026,28.869V18.477l7.182-1.341Z" transform="translate(0 -16.01)" fill="#0e99ff"/>
    </g>
  </g>
  <g id="Group_89658" data-name="Group 89658" transform="translate(8.208 2.043)">
    <g id="Group_89657" data-name="Group 89657">
      <path id="Path_93740" data-name="Path 93740" d="M263.7,79.99h-7.182a.511.511,0,1,0,0,1.022h6.669v9.2h-6.669a.511.511,0,1,0,0,1.022H263.7a.512.512,0,0,0,.513-.511V80.5A.512.512,0,0,0,263.7,79.99Z" transform="translate(-256 -79.99)" fill="#0e99ff"/>
    </g>
  </g>
  <g id="Group_89660" data-name="Group 89660" transform="translate(8.208 4.087)">
    <g id="Group_89659" data-name="Group 89659">
      <path id="Path_93741" data-name="Path 93741" d="M258.565,143.99h-2.052a.511.511,0,1,0,0,1.022h2.052a.511.511,0,1,0,0-1.022Z" transform="translate(-256 -143.99)" fill="#0e99ff"/>
    </g>
  </g>
  <g id="Group_89662" data-name="Group 89662" transform="translate(8.208 6.131)">
    <g id="Group_89661" data-name="Group 89661">
      <path id="Path_93742" data-name="Path 93742" d="M258.565,207.99h-2.052a.511.511,0,1,0,0,1.022h2.052a.511.511,0,1,0,0-1.022Z" transform="translate(-256 -207.99)" fill="#0e99ff"/>
    </g>
  </g>
  <g id="Group_89664" data-name="Group 89664" transform="translate(8.208 8.174)">
    <g id="Group_89663" data-name="Group 89663">
      <path id="Path_93743" data-name="Path 93743" d="M258.565,271.99h-2.052a.511.511,0,1,0,0,1.022h2.052a.511.511,0,1,0,0-1.022Z" transform="translate(-256 -271.99)" fill="#0e99ff"/>
    </g>
  </g>
  <g id="Group_89666" data-name="Group 89666" transform="translate(8.208 10.218)">
    <g id="Group_89665" data-name="Group 89665">
      <path id="Path_93744" data-name="Path 93744" d="M258.565,335.99h-2.052a.511.511,0,1,0,0,1.022h2.052a.511.511,0,1,0,0-1.022Z" transform="translate(-256 -335.99)" fill="#0e99ff"/>
    </g>
  </g>
  <g id="Group_89668" data-name="Group 89668" transform="translate(12.312 4.087)">
    <g id="Group_89667" data-name="Group 89667">
      <path id="Path_93745" data-name="Path 93745" d="M385.539,143.99h-1.026a.511.511,0,1,0,0,1.022h1.026a.511.511,0,1,0,0-1.022Z" transform="translate(-384 -143.99)" fill="#0e99ff"/>
    </g>
  </g>
  <g id="Group_89670" data-name="Group 89670" transform="translate(12.312 6.131)">
    <g id="Group_89669" data-name="Group 89669">
      <path id="Path_93746" data-name="Path 93746" d="M385.539,207.99h-1.026a.511.511,0,1,0,0,1.022h1.026a.511.511,0,1,0,0-1.022Z" transform="translate(-384 -207.99)" fill="#0e99ff"/>
    </g>
  </g>
  <g id="Group_89672" data-name="Group 89672" transform="translate(12.312 8.174)">
    <g id="Group_89671" data-name="Group 89671">
      <path id="Path_93747" data-name="Path 93747" d="M385.539,271.99h-1.026a.511.511,0,1,0,0,1.022h1.026a.511.511,0,1,0,0-1.022Z" transform="translate(-384 -271.99)" fill="#0e99ff"/>
    </g>
  </g>
  <g id="Group_89674" data-name="Group 89674" transform="translate(12.312 10.218)">
    <g id="Group_89673" data-name="Group 89673">
      <path id="Path_93748" data-name="Path 93748" d="M385.539,335.99h-1.026a.511.511,0,1,0,0,1.022h1.026a.511.511,0,1,0,0-1.022Z" transform="translate(-384 -335.99)" fill="#0e99ff"/>
    </g>
  </g>
  <g id="Group_89676" data-name="Group 89676" transform="translate(2.565 5.109)">
    <g id="Group_89675" data-name="Group 89675">
      <path id="Path_93749" data-name="Path 93749" d="M84.5,180.246,80.9,176.159a.514.514,0,0,0-.724-.048.509.509,0,0,0-.048.72l3.591,4.087a.512.512,0,0,0,.773-.672Z" transform="translate(-80.004 -175.984)" fill="#0e99ff"/>
    </g>
  </g>
  <g id="Group_89678" data-name="Group 89678" transform="translate(2.565 4.598)">
    <g id="Group_89677" data-name="Group 89677">
      <path id="Path_93750" data-name="Path 93750" d="M84.419,160.1a.514.514,0,0,0-.72.089l-3.591,4.6a.512.512,0,0,0,.81.628l3.591-4.6A.509.509,0,0,0,84.419,160.1Z" transform="translate(-79.999 -159.992)" fill="#0e99ff"/>
    </g>
  </g>
</svg>
