<svg xmlns="http://www.w3.org/2000/svg" width="24" height="24" viewBox="0 0 24 24">
  <g id="holiday" transform="translate(-4.27 -4.205)">
    <path id="Path_161780" data-name="Path 161780" d="M40.882,7.978h-1.93V5.63A1.428,1.428,0,0,0,37.524,4.2h-2.7A1.428,1.428,0,0,0,33.4,5.63c0,.485,0,1.9,0,2.349h-1.93a1.8,1.8,0,0,0-1.8,1.792v5.88a2.438,2.438,0,0,1,2.882,2.34c-.021.293.044,7.107-.035,7.188a2.221,2.221,0,0,1-.325.863s7.08.009,8.69,0a1.8,1.8,0,0,0,1.8-1.792V9.77a1.8,1.8,0,0,0-1.8-1.792Zm-1.93,3.406V22.636a.433.433,0,0,1-.866,0V11.385a.433.433,0,0,1,.866,0Zm-2.345,0V22.636a.433.433,0,0,1-.866,0V11.385a.433.433,0,0,1,.866,0Zm-2.345,0V22.636a.433.433,0,0,1-.866,0V11.385a.433.433,0,0,1,.866,0Zm0-4.054V5.63a.561.561,0,0,1,.563-.561h2.7a.564.564,0,0,1,.563.561c0,.458,0,1.915,0,2.349H34.261Z" transform="translate(-14.408)" fill="#0e99ff"/>
    <path id="Path_161781" data-name="Path 161781" d="M34.1,56.285a1.188,1.188,0,0,0,1.194,1.17h.472a1.212,1.212,0,0,0,1.212-1.17H34.1Z" transform="translate(-16.921 -29.595)" fill="#0e99ff"/>
    <path id="Path_161782" data-name="Path 161782" d="M48.65,56.285a1.212,1.212,0,0,0,1.212,1.17h.472a1.215,1.215,0,0,0,1.212-1.17Z" transform="translate(-25.175 -29.595)" fill="#0e99ff"/>
    <path id="Path_161783" data-name="Path 161783" d="M17.278,37.873V31.06a1.485,1.485,0,0,0-1.48-1.477s-1.261,0-1.432,0V28.72a1.313,1.313,0,0,0-1.272-1.515H8.459a1.274,1.274,0,0,0-1.277,1.269c.008.147-.006.943,0,1.11H5.75A1.483,1.483,0,0,0,4.27,31.06v6.813A1.48,1.48,0,0,0,5.75,39.35c1.76,0,10.044,0,10.044,0A1.48,1.48,0,0,0,17.278,37.873Zm-3.15-.065a.434.434,0,0,1-.433-.432v-5.82a.433.433,0,0,1,.865,0v5.82a.434.434,0,0,1-.433.432Zm-3.354,0a.434.434,0,0,1-.433-.432v-5.82a.433.433,0,0,1,.865,0v5.82a.429.429,0,0,1-.433.432Zm-3.349,0a.429.429,0,0,1-.433-.432v-5.82a.433.433,0,0,1,.865,0v5.82a.434.434,0,0,1-.433.432Zm.623-9.334a.41.41,0,0,1,.411-.406h4.635c.377.015.433.342.407.652v.863H8.048Z" transform="translate(0 -13.07)" fill="#0e99ff"/>
    <path id="Path_161784" data-name="Path 161784" d="M8.68,57.335a1.214,1.214,0,0,0,1.2,1.062h.476a1.214,1.214,0,0,0,1.2-1.062Z" transform="translate(-2.502 -30.192)" fill="#0e99ff"/>
    <path id="Path_161785" data-name="Path 161785" d="M23.27,57.335a1.214,1.214,0,0,0,1.2,1.062h.472a1.211,1.211,0,0,0,1.2-1.062Z" transform="translate(-10.778 -30.192)" fill="#0e99ff"/>
  </g>
</svg>
