<svg xmlns="http://www.w3.org/2000/svg" width="28" height="28" viewBox="0 0 28 28">
  <path id="leave_balance" data-name="leave balance" d="M36.432,39.009a.778.778,0,1,1,.778.781A.778.778,0,0,1,36.432,39.009Zm2.046-3.773H35.941v-.282a.281.281,0,0,1,.281-.282H38.2a.281.281,0,0,1,.281.282v.282ZM39.794,36H41.05v1.448a.692.692,0,0,1-.389.529,5.192,5.192,0,0,1-2.01.487,1.537,1.537,0,0,0-2.878,0,5.222,5.222,0,0,1-2.01-.487.692.692,0,0,1-.389-.529V36h1.256v.288a.778.778,0,0,0,.778.781h3.614a.778.778,0,0,0,.778-.781V36h0Zm-4.4,0h3.644v.469a.019.019,0,0,1-.018.018H35.4a.019.019,0,0,1-.018-.018V36Zm1.819-4.639A6.82,6.82,0,1,0,44,38.18a6.8,6.8,0,0,0-6.791-6.82Zm4.224,6.97v2.62a1,1,0,0,1-1,1h-6.45a1,1,0,0,1-1-1V38.33a1.241,1.241,0,0,1-.377-.877V35.939a.7.7,0,0,1,.694-.7h1.873V34.96a1.044,1.044,0,0,1,1.041-1.045h1.974a1.044,1.044,0,0,1,1.041,1.045v.282H41.1a.7.7,0,0,1,.694.7v1.514a1.241,1.241,0,0,1-.377.877h.012Zm-.76.487V40.95a.241.241,0,0,1-.239.24h-6.45a.241.241,0,0,1-.239-.24V38.817a7.549,7.549,0,0,0,1.938.4,1.539,1.539,0,0,0,3.051,0,7.813,7.813,0,0,0,1.938-.4h0Zm-21.2-16.908a1.446,1.446,0,0,1-1.442-1.448V18.634h-.078a1.959,1.959,0,0,0-1.95,1.959v1.52H40.165v-1.52a1.959,1.959,0,0,0-1.95-1.959h-.078v1.827a1.446,1.446,0,0,1-1.442,1.448h-.963a1.446,1.446,0,0,1-1.442-1.448V18.634H32.728v1.827a1.446,1.446,0,0,1-1.442,1.448h-.963a1.446,1.446,0,0,1-1.442-1.448V18.634H27.32v1.827a1.446,1.446,0,0,1-1.442,1.448h-.963a1.446,1.446,0,0,1-1.442-1.448V18.634H21.911v1.827a1.446,1.446,0,0,1-1.442,1.448h-.993Zm0-4.909h.963a.487.487,0,0,1,.485.487v2.968a.487.487,0,0,1-.485.487h-.963a.487.487,0,0,1-.485-.487V17.487A.487.487,0,0,1,19.476,17ZM35.72,17h.963a.487.487,0,0,1,.485.487v2.968a.487.487,0,0,1-.485.487H35.72a.487.487,0,0,1-.485-.487V17.487A.487.487,0,0,1,35.72,17Zm-5.415,0h.963a.487.487,0,0,1,.485.487v2.968a.487.487,0,0,1-.485.487h-.963a.487.487,0,0,1-.485-.487V17.487A.487.487,0,0,1,30.305,17Zm-5.415,0h.963a.487.487,0,0,1,.485.487v2.968a.487.487,0,0,1-.485.487h-.963a.487.487,0,0,1-.485-.487V17.487A.487.487,0,0,1,24.891,17ZM16,23.069V37.075a1.959,1.959,0,0,0,1.95,1.959H28.791a8.033,8.033,0,0,1-.042-.847,8.628,8.628,0,0,1,.209-1.9H27.116a.481.481,0,0,1-.479-.481V33.866a.481.481,0,0,1,.479-.481h1.932a.481.481,0,0,1,.479.481v.757a8.523,8.523,0,0,1,1.46-2.2h-.024a.481.481,0,0,1-.479-.481V30a.481.481,0,0,1,.479-.481H32.9a.481.481,0,0,1,.479.481v.6a9.066,9.066,0,0,1,.957-.421V30a.481.481,0,0,1,.479-.481h1.932a.473.473,0,0,1,.353.156h.12a8.421,8.421,0,0,1,2.95.529V23.057H16Zm5.833,12.738a.481.481,0,0,1-.479.481H19.422a.481.481,0,0,1-.479-.481V33.866a.481.481,0,0,1,.479-.481h1.932a.481.481,0,0,1,.479.481Zm0-3.864a.481.481,0,0,1-.479.481H19.422a.481.481,0,0,1-.479-.481V30a.481.481,0,0,1,.479-.481h1.932a.481.481,0,0,1,.479.481Zm0-3.864a.481.481,0,0,1-.479.481H19.422a.481.481,0,0,1-.479-.481V26.139a.481.481,0,0,1,.479-.481h1.932a.481.481,0,0,1,.479.481Zm3.847,7.727a.481.481,0,0,1-.479.481H23.269a.481.481,0,0,1-.479-.481V33.866a.481.481,0,0,1,.479-.481H25.2a.481.481,0,0,1,.479.481Zm0-3.864a.481.481,0,0,1-.479.481H23.269a.481.481,0,0,1-.479-.481V30a.481.481,0,0,1,.479-.481H25.2A.481.481,0,0,1,25.68,30Zm0-3.864a.481.481,0,0,1-.479.481H23.269a.481.481,0,0,1-.479-.481V26.139a.481.481,0,0,1,.479-.481H25.2a.481.481,0,0,1,.479.481Zm3.847,3.864a.481.481,0,0,1-.479.481H27.116a.481.481,0,0,1-.479-.481V30a.481.481,0,0,1,.479-.481h1.932a.481.481,0,0,1,.479.481Zm0-3.864a.481.481,0,0,1-.479.481H27.116a.481.481,0,0,1-.479-.481V26.139a.481.481,0,0,1,.479-.481h1.932a.481.481,0,0,1,.479.481Zm3.841,0a.481.481,0,0,1-.479.481H30.957a.481.481,0,0,1-.479-.481V26.139a.481.481,0,0,1,.479-.481H32.89a.481.481,0,0,1,.479.481Zm3.847,0a.481.481,0,0,1-.479.481H34.8a.481.481,0,0,1-.479-.481V26.139a.481.481,0,0,1,.479-.481h1.932a.481.481,0,0,1,.479.481Z" transform="translate(-16 -17)" fill="#0e99ff" fill-rule="evenodd"/>
</svg>
