<svg xmlns="http://www.w3.org/2000/svg" xmlns:xlink="http://www.w3.org/1999/xlink" width="78.51" height="31.906" viewBox="0 0 78.51 31.906">
  <defs>
    <linearGradient id="linear-gradient" x1="0.74" y1="0.046" x2="0.195" y2="0.943" gradientUnits="objectBoundingBox">
      <stop offset="0" stop-color="#d0121b"/>
      <stop offset="1" stop-color="#ffa900"/>
    </linearGradient>
    <linearGradient id="linear-gradient-2" x1="0.84" y1="0.345" x2="0.351" y2="0.663" xlink:href="#linear-gradient"/>
  </defs>
  <g id="Logo" transform="translate(-28 -21)">
    <g id="Group_65723" data-name="Group 65723" transform="translate(37.222 21.876)">
      <path id="Path_51528" data-name="Path 51528" d="M335.67,606.224l1.887,3.28,1.942-3.28-1.577-6.788,1.2-1.716h-3.078l1.193,1.751Z" transform="translate(-335.67 -588.332)" fill-rule="evenodd" fill="url(#linear-gradient)"/>
      <path id="Path_51529" data-name="Path 51529" d="M493.522,566.747a16.753,16.753,0,0,1,10.423,11.474,17.748,17.748,0,0,1-3.05,15.53,17.553,17.553,0,0,0-4.227-23.652,15.734,15.734,0,0,0-22.529,4.439A15.935,15.935,0,0,1,493.522,566.747Z" transform="translate(-435.287 -565.845)" fill-rule="evenodd" fill="url(#linear-gradient-2)"/>
    </g>
    <path id="Path_51530" data-name="Path 51530" d="M304.74,563.1v.12h.143a.743.743,0,0,1,.729.69v6.714a.749.749,0,0,1-.731.754h-.145v.12h3.47v-.12h-.145a.75.75,0,0,1-.731-.754v-7.017h.762c.916,0,1.44.668,1.472,1.691a2.768,2.768,0,0,1-.07.722,1.724,1.724,0,0,1-1.773,1.368v.114a2.234,2.234,0,0,0,2.461.153,2.469,2.469,0,0,0,1.21-2.255c-.041-1.31-.887-2.3-2.841-2.3Zm12.123-.168c-2.809,0-4.606,1.672-4.606,4.367s1.8,4.366,4.606,4.366,4.609-1.671,4.609-4.366S319.671,562.934,316.862,562.934Zm0,8.23c-1.674,0-2.729-1.479-2.729-3.863s1.055-3.86,2.729-3.86,2.731,1.479,2.731,3.86S318.538,571.164,316.862,571.164Zm13.747-8.061h2.4v.12h-.1a1.07,1.07,0,0,0-.988.7l-1.92,6.462a4.649,4.649,0,0,0-.2,1.332H329.7l-2.493-5.792-1.806,4.46a4.621,4.621,0,0,0-.279,1.332h-.109l-2.733-7.8a1.09,1.09,0,0,0-.983-.694H321.2v-.12h3.485v.12h-.1a.487.487,0,0,0-.421.245.539.539,0,0,0-.02.505l1.4,4.164,2.072-5.22.107,0L330,568.19l1.141-4.221c.124-.48-.117-.748-.435-.748h-.1V563.1Zm8.882,5.95a2.322,2.322,0,0,1-2.236,1.935h-1.5v-3.377h1.528a.928.928,0,0,1,.685.3,1.025,1.025,0,0,1,.269.727v.1h.112v-2.773h-.112v.1a1.028,1.028,0,0,1-.274.731.929.929,0,0,1-.693.3h-1.516v-3.491h1.923a1.067,1.067,0,0,1,.815.354,1.181,1.181,0,0,1,.3.871v.14h.114v-2.1a4.676,4.676,0,0,1-1.363.217h-4.379v.12h.145a.748.748,0,0,1,.73.716v6.694a.75.75,0,0,1-.732.754h-.145v.12h5.915l.527-2.447Zm.87-5.95,0,.12h.145a.748.748,0,0,1,.731.754v6.654a.749.749,0,0,1-.731.75h-.145l0,.12h3.475v-.12h-.143a.751.751,0,0,1-.735-.754v-7c.145,0,.564-.008.867,0,.751.02,1.3.534,1.346,1.681a2.577,2.577,0,0,1-.041.58c-.2,1.052-.826,1.38-1.443,1.388h-.349v.114c.3.054.56.3.774.808a17.655,17.655,0,0,0,.95,2.055,2.776,2.776,0,0,0,2.685,1.244h1.112v-.12c-.6-.01-.922-.252-1.415-.911-.431-.564-1.115-1.705-1.15-1.763a2.492,2.492,0,0,0-1.166-1.062A2.15,2.15,0,0,0,347,565.363c0-1.669-1.331-2.261-2.717-2.261Z" transform="translate(-276.192 -541.879)" fill="#05267d" fill-rule="evenodd"/>
    <path id="Path_51531" data-name="Path 51531" d="M325.066,618.466H324.7a1.878,1.878,0,0,1-1.833-1.889V599.916a1.883,1.883,0,0,1,1.833-1.894h.363l0-.3h-8.692l.005.3h.358a1.857,1.857,0,0,1,1.839,1.853v10.777h-9.287V599.9a1.865,1.865,0,0,1,1.837-1.873h.358l0-.3H302.8l.005.3h.363A1.878,1.878,0,0,1,305,599.9v16.678a1.878,1.878,0,0,1-1.832,1.889H302.8l-.005.3h8.693l0-.3h-.358a1.869,1.869,0,0,1-1.837-1.889V611.92h9.287V616.6a1.861,1.861,0,0,1-1.837,1.868h-.358l0,.3h8.694Z" transform="translate(-274.8 -566.456)" fill="#05267d" fill-rule="evenodd"/>
    <path id="Path_51532" data-name="Path 51532" d="M351.745,597.739l0,.3h.363a1.875,1.875,0,0,1,1.832,1.888V616.6a1.878,1.878,0,0,1-1.832,1.878h-.363l0,.3h8.708l-.005-.3h-.358a1.882,1.882,0,0,1-1.842-1.888V599.052c.363.01,1.412-.02,2.176.01,1.88.05,3.259,1.337,3.374,4.213a6.493,6.493,0,0,1-.105,1.453c-.51,2.635-2.075,3.456-3.617,3.476H359.2v.286c.744.135,1.4.762,1.937,2.024a44.063,44.063,0,0,0,2.386,5.15c1.417,2.339,3.594,3.116,6.728,3.116h2.787v-.3c-1.493-.025-2.31-.631-3.545-2.28-1.078-1.413-2.8-4.273-2.882-4.418a6.239,6.239,0,0,0-2.92-2.66c3.249-.341,4.686-3.186,4.686-5.716,0-4.183-3.335-5.666-6.809-5.666Z" transform="translate(-310.012 -566.468)" fill="#05267d" fill-rule="evenodd"/>
    <path id="Path_51533" data-name="Path 51533" d="M427.683,604.639h.223c-.086-2.928.757-4.549,2.573-4.667,1.554-.1,2.617,1.006,2.74,2.868.175,2.776-1.793,4.722-3.829,4.663l-.041.273c2.215.027,4.317,1.33,4.321,4.572a7,7,0,0,1-1.939,4.936,6.339,6.339,0,0,1-4.73,1.96l-.022.3a7.377,7.377,0,0,0,10.275-6.908c-.007-3.287-1.924-4.79-3.635-5.169,1.506-.127,3.065-1.758,3.065-4.189,0-2.742-1.957-4.517-5.179-4.453a6.414,6.414,0,0,0-4.754,1.94Z" transform="translate(-363.973 -567.233)" fill="#05267d" fill-rule="evenodd"/>
    <path id="Path_51534" data-name="Path 51534" d="M472.443,610.539a2.011,2.011,0,0,1,1.987-.729c1.152.191,1.853,1.421,1.868,4.394.011,2.532-.548,4.872-2.393,4.872-1.909,0-2.4-2.516-2.4-6.885,0-5.888.832-9.955,6.376-12.072l-.083-.2c-6.744-.4-9.981,4.972-10,11.927-.019,5.747,2.3,8.631,6.148,8.547,3.892-.082,5.809-3.06,5.8-6.521-.019-6.726-5.783-6.985-7.442-3.561Z" transform="translate(-393.5 -567.993)" fill="#05267d" fill-rule="evenodd"/>
    <path id="Path_51535" data-name="Path 51535" d="M521.52,598.611c-4.15,0-6.714,3.994-6.714,10.436s2.565,10.436,6.714,10.436,6.715-3.994,6.715-10.436S525.67,598.611,521.52,598.611Zm0,1.4c1.991,0,3.251,3.462,3.251,9.035s-1.26,9.034-3.251,9.034-3.255-3.462-3.255-9.034S519.53,600.012,521.52,600.012Z" transform="translate(-427.322 -567.083)" fill="#05267d" fill-rule="evenodd"/>
  </g>
</svg>
