<svg xmlns="http://www.w3.org/2000/svg" width="23" height="24" viewBox="0 0 23 24">
  <g id="Leave" transform="translate(-2.6 -2)">
    <path id="Path_161743" data-name="Path 161743" d="M17.439,11.8A6.207,6.207,0,0,0,11.2,17.92c.367,8.16,12.112,8.16,12.479,0a6.207,6.207,0,0,0-6.239-6.12h0Zm2.814,7.44a1.079,1.079,0,0,1,0,1.44,1.133,1.133,0,0,1-1.468,0l-1.223-1.2-1.223,1.2a1.133,1.133,0,0,1-1.468,0,1.079,1.079,0,0,1,0-1.44l1.223-1.2-1.223-1.2a1.079,1.079,0,0,1,0-1.44,1.133,1.133,0,0,1,1.468,0l1.223,1.2,1.223-1.2a1.133,1.133,0,0,1,1.468,0,1.079,1.079,0,0,1,0,1.44l-1.223,1.2Z" transform="translate(1.921 1.96)" fill="#0e99ff"/>
    <g id="Group_110961" data-name="Group 110961" transform="translate(2.6 2)">
      <path id="Path_161744" data-name="Path 161744" d="M11.505,2a5.4,5.4,0,1,0,0,10.8,5.4,5.4,0,1,0,0-10.8Z" transform="translate(-1.84 -2)" fill="#0e99ff"/>
      <path id="Path_161745" data-name="Path 161745" d="M12.754,13.38a.662.662,0,0,0-.489-1.08H10.8a8.12,8.12,0,0,0-8.2,8.04c0,3.026,1.468,3.24,3.3,3.24h6.362a.645.645,0,0,0,.489-1.08,7.537,7.537,0,0,1-1.468-4.56,6.949,6.949,0,0,1,1.468-4.44Z" transform="translate(-2.6 0.06)" fill="#0e99ff"/>
    </g>
  </g>
</svg>
