<svg xmlns="http://www.w3.org/2000/svg" width="28" height="28" viewBox="0 0 28 28">
  <g id="Open_Positions" data-name="Open Positions" transform="translate(0)">
    <path id="Path_161746" data-name="Path 161746" d="M1.481,356.5l6.033-6.033a9.1,9.1,0,0,0,2.32,2.32L3.8,358.821a1.641,1.641,0,0,1-2.32-2.32Z" transform="translate(-0.945 -331.302)" fill="#0e99ff"/>
    <path id="Path_161747" data-name="Path 161747" d="M35,2.734a2.734,2.734,0,1,1,2.734,2.734A2.737,2.737,0,0,1,35,2.734Z" transform="translate(-33.086)" fill="#0e99ff"/>
    <path id="Path_161748" data-name="Path 161748" d="M377,2.734a2.734,2.734,0,1,1,2.734,2.734A2.737,2.737,0,0,1,377,2.734Z" transform="translate(-356.383)" fill="#0e99ff"/>
    <path id="Path_161749" data-name="Path 161749" d="M201,305.008a3.008,3.008,0,0,1,6.016,0v1.273a7.377,7.377,0,0,1-6.016,0Z" transform="translate(-190.008 -285.484)" fill="#0e99ff"/>
    <circle id="Ellipse_1107" data-name="Ellipse 1107" cx="1.641" cy="1.641" r="1.641" transform="translate(12.359 11.594)" fill="#0e99ff"/>
    <path id="Path_161750" data-name="Path 161750" d="M343.712,421.169a4.361,4.361,0,0,0,5.876,0,4.641,4.641,0,0,1,1.709,3.6v.547a.82.82,0,0,1-.82.82H342.82a.82.82,0,0,1-.82-.82v-.547A4.641,4.641,0,0,1,343.712,421.169Z" transform="translate(-323.297 -398.136)" fill="#0e99ff"/>
    <path id="Path_161751" data-name="Path 161751" d="M380.159,312a2.734,2.734,0,1,1-2.71,3.1,8.987,8.987,0,0,0,1.812-2.943A2.725,2.725,0,0,1,380.159,312Z" transform="translate(-356.807 -294.938)" fill="#0e99ff"/>
    <path id="Path_161752" data-name="Path 161752" d="M1.709,109.206a4.367,4.367,0,0,0,5.879,0,4.691,4.691,0,0,1,.883.957,9.065,9.065,0,0,0-2.939,4.009H.82a.82.82,0,0,1-.82-.82V112.8a4.641,4.641,0,0,1,1.709-3.6Z" transform="translate(0 -103.234)" fill="#0e99ff"/>
    <path id="Path_161753" data-name="Path 161753" d="M357.106,110.163a4.689,4.689,0,0,1,.883-.957,4.367,4.367,0,0,0,5.879,0,4.641,4.641,0,0,1,1.709,3.6v.547a.82.82,0,0,1-.82.82h-4.712A9.065,9.065,0,0,0,357.106,110.163Z" transform="translate(-337.577 -103.234)" fill="#0e99ff"/>
    <path id="Path_161754" data-name="Path 161754" d="M128.383,122a7.38,7.38,0,0,1,4.648,13.114v-.262a4.65,4.65,0,0,0-2.295-4.006,3.281,3.281,0,1,0-4.707,0,4.65,4.65,0,0,0-2.295,4.006v.262A7.38,7.38,0,0,1,128.383,122Z" transform="translate(-114.383 -115.328)" fill="#0e99ff"/>
  </g>
</svg>
