<svg id="pdf_4_" data-name="pdf (4)" xmlns="http://www.w3.org/2000/svg" width="12.458" height="16.417" viewBox="0 0 12.458 16.417">
  <g id="Group_89699" data-name="Group 89699" transform="translate(0 0)">
    <g id="Group_89698" data-name="Group 89698" transform="translate(0)">
      <path id="Path_93755" data-name="Path 93755" d="M76.115,3.468,72.722.1a.34.34,0,0,0-.24-.1H65.357A1.354,1.354,0,0,0,64,1.348V14.826a1.354,1.354,0,0,0,1.357,1.348h9.5a1.354,1.354,0,0,0,1.357-1.348V3.707A.336.336,0,0,0,76.115,3.468ZM72.821,1.15,75.056,3.37H73.5a.677.677,0,0,1-.679-.674Zm2.714,13.676a.677.677,0,0,1-.679.674h-9.5a.677.677,0,0,1-.679-.674V1.348a.677.677,0,0,1,.679-.674h6.786V2.7A1.354,1.354,0,0,0,73.5,4.044h2.036Z" transform="translate(-63.878 0.121)" fill="#0e99ff"/>
      <path id="Path_93755_-_Outline" data-name="Path 93755 - Outline" d="M65.329-.15h7.125a.46.46,0,0,1,.326.134l3.393,3.37a.454.454,0,0,1,.135.324V14.8a1.476,1.476,0,0,1-1.479,1.469h-9.5A1.476,1.476,0,0,1,63.85,14.8V1.319A1.476,1.476,0,0,1,65.329-.15Zm9.5,16.174A1.232,1.232,0,0,0,76.064,14.8V3.678A.213.213,0,0,0,76,3.525L72.608.156a.216.216,0,0,0-.154-.063H65.329a1.232,1.232,0,0,0-1.235,1.227V14.8a1.232,1.232,0,0,0,1.235,1.227Zm-9.5-15.5h6.908V2.667a1.232,1.232,0,0,0,1.235,1.227H75.63V14.8a.8.8,0,0,1-.8.8h-9.5a.8.8,0,0,1-.8-.8V1.319A.8.8,0,0,1,65.329.524Zm6.663.243H65.329a.555.555,0,0,0-.556.553V14.8a.555.555,0,0,0,.556.553h9.5a.555.555,0,0,0,.556-.553V4.136H73.472a1.476,1.476,0,0,1-1.479-1.469Zm.679.062,2.651,2.633H73.472a.8.8,0,0,1-.8-.8ZM74.733,3.22,72.916,1.415V2.667a.555.555,0,0,0,.556.553Z" transform="translate(-63.85 0.15)" fill="#0e99ff"/>
      <path id="Path_93756" data-name="Path 93756" d="M133.8,175.167a9.819,9.819,0,0,1-.811-.7c-.258-.257-.489-.505-.689-.742a7.5,7.5,0,0,0,.449-1.715c0-1.118-.407-1.348-1.018-1.348-.464,0-1.018.24-1.018,1.38a3.22,3.22,0,0,0,.827,1.823c-.134.408-.293.878-.47,1.408-.086.254-.178.49-.276.708-.08.035-.157.071-.232.108-.27.134-.526.254-.763.366-1.083.509-1.8.846-1.8,1.512,0,.483.528.782,1.018.782.631,0,1.583-.837,2.279-2.247a13.572,13.572,0,0,1,2.329-.624,3.9,3.9,0,0,0,1.5.849c.841,0,1.018-.483,1.018-.888,0-.8-.916-.8-1.357-.8A8.089,8.089,0,0,0,133.8,175.167Zm-4.783,2.913a.538.538,0,0,1-.339-.108c0-.239.717-.577,1.411-.9l.134-.063C129.714,177.739,129.21,178.079,129.018,178.079Zm2.375-6.033c0-.706.221-.706.339-.706.24,0,.339,0,.339.674a5.372,5.372,0,0,1-.27,1.052A2.062,2.062,0,0,1,131.393,172.046Zm.26,3.622q.032-.088.062-.178c.126-.375.239-.712.34-1.016q.211.231.455.473c.064.063.221.205.431.383C132.523,175.422,132.078,175.534,131.653,175.668Zm3.811.175c0,.151,0,.214-.315.216a2.505,2.505,0,0,1-.57-.323c.1-.011.166-.016.206-.016C135.287,175.72,135.429,175.769,135.464,175.843Z" transform="translate(-125.842 -165.153)" fill="#0e99ff"/>
      <path id="Path_93756_-_Outline" data-name="Path 93756 - Outline" d="M128.99,178.846c-.548,0-1.14-.345-1.14-.9,0-.743.744-1.092,1.869-1.621l.019-.009c.236-.111.481-.226.742-.356.06-.03.124-.06.194-.091.092-.207.177-.427.253-.655l.09-.268c.136-.4.254-.757.36-1.079a3.269,3.269,0,0,1-.813-1.846c0-1.306.714-1.5,1.14-1.5a1.057,1.057,0,0,1,.829.295,1.708,1.708,0,0,1,.311,1.174,6.9,6.9,0,0,1-.434,1.688c.19.221.4.451.638.683a9.361,9.361,0,0,0,.758.653,7.966,7.966,0,0,1,.951-.113c.443,0,1.479,0,1.479.918,0,.377-.148,1.009-1.14,1.009a3.523,3.523,0,0,1-1.53-.841,13.751,13.751,0,0,0-2.209.591C130.686,177.914,129.716,178.846,128.99,178.846Zm2.714-8.087c-.594,0-.9.424-.9,1.259a3.12,3.12,0,0,0,.8,1.749l.039.051-.02.061c-.111.338-.236.71-.38,1.14l-.09.268c-.084.25-.179.492-.281.719l-.019.042-.043.019c-.085.037-.159.072-.227.106-.264.131-.509.247-.747.359l-.019.009c-1.041.49-1.729.813-1.729,1.4,0,.408.465.661.9.661.544,0,1.464-.748,2.17-2.179l.021-.042.044-.017a13.967,13.967,0,0,1,2.351-.63l.054-.01.043.033c.973.743,1.32.823,1.424.823.6,0,.9-.251.9-.767,0-.594-.594-.675-1.235-.675a8.025,8.025,0,0,0-.964.118l-.053.009-.042-.033a9.877,9.877,0,0,1-.822-.7c-.257-.255-.491-.508-.7-.75l-.043-.051.021-.064a7.926,7.926,0,0,0,.443-1.678C132.6,170.852,132.176,170.759,131.7,170.759Zm-2.714,7.413a.636.636,0,0,1-.434-.153l-.027-.033v-.043c0-.3.563-.581,1.481-1.013l.546-.257-.259.372C129.783,177.785,129.251,178.172,128.99,178.172Zm-.189-.28a.491.491,0,0,0,.189.038,1.757,1.757,0,0,0,.8-.627c-.231.111-.452.221-.631.325A1.359,1.359,0,0,0,128.8,177.891Zm6.308-1.739-.013,0a1.976,1.976,0,0,1-.613-.341l-.273-.185.329-.036c.1-.011.174-.017.22-.017.522,0,.721.049.789.192l.012.025v.027c0,.26-.1.335-.436.337Zm-.16-.336a1.056,1.056,0,0,0,.188.093.533.533,0,0,0,.175-.019.219.219,0,0,0,0-.027A1.131,1.131,0,0,0,134.949,175.816Zm-3.522.013.084-.231q.031-.086.061-.175l.076-.227c.1-.285.184-.547.264-.788l.066-.2.141.154c.138.151.29.309.451.469.059.059.213.2.424.377l.187.159-.241.052c-.462.1-.892.212-1.278.334Zm.651-1.15-.2.594-.061.181c.262-.077.54-.149.833-.217-.112-.1-.2-.182-.255-.232C132.285,174.895,132.178,174.786,132.078,174.679Zm-.265-1.359-.142-.216a2.153,2.153,0,0,1-.428-1.086c0-.58.138-.827.461-.827a.377.377,0,0,1,.362.14,1.277,1.277,0,0,1,.1.656,5.122,5.122,0,0,1-.276,1.089Zm-.108-1.887c-.076,0-.217,0-.217.585a1.6,1.6,0,0,0,.25.726,4.365,4.365,0,0,0,.185-.758,1.522,1.522,0,0,0-.06-.524C131.845,171.437,131.822,171.433,131.7,171.433Z" transform="translate(-125.814 -165.125)" fill="#0e99ff"/>
    </g>
  </g>
</svg>
