<svg xmlns="http://www.w3.org/2000/svg" width="23" height="26" viewBox="0 0 23 26">
  <g id="Pending_Requests" data-name="Pending Requests" transform="translate(-29.8)">
    <path id="Path_161760" data-name="Path 161760" d="M35.007,0A5.2,5.2,0,0,0,29.8,5.184v14.8a5.193,5.193,0,0,0,5.207,5.184H39.65a8.648,8.648,0,0,1,6.324-14.6c4.8,0,1.943.166,2.831.468V5.184A5.185,5.185,0,0,0,43.6,0ZM34,5.637A1.221,1.221,0,0,1,35.221,4.42h6.246a1.217,1.217,0,1,1,0,2.434H35.221A1.221,1.221,0,0,1,34,5.637Zm1.008,2.928a1.149,1.149,0,1,0,0,2.3h1.624a1.149,1.149,0,1,0,0-2.3Z" transform="translate(0)" fill="#0e99ff" fill-rule="evenodd"/>
    <path id="Path_161761" data-name="Path 161761" d="M234.773,258.058a6.486,6.486,0,1,1-6.486-6.458A6.472,6.472,0,0,1,234.773,258.058ZM232,255.6a.951.951,0,0,1,.089,1.347l-3.275,3.723a1.6,1.6,0,0,1-2.334.068l-1.838-1.856a.95.95,0,0,1,.01-1.347.96.96,0,0,1,1.353.01l1.118,1.128a.644.644,0,0,0,.935-.026l2.6-2.954a.955.955,0,0,1,1.347-.088Z" transform="translate(-181.973 -238.517)" fill="#0e99ff" fill-rule="evenodd"/>
  </g>
</svg>
