<svg xmlns="http://www.w3.org/2000/svg" width="24" height="24" viewBox="0 0 24 24">
  <g id="Pending_applications" data-name="Pending applications" transform="translate(-1)">
    <path id="Path_161775" data-name="Path 161775" d="M411,8.782v4.276h4.292Z" transform="translate(-390.706 -8.37)" fill="#0e99ff"/>
    <path id="Path_161776" data-name="Path 161776" d="M133.941,6.094a.7.7,0,0,1-.706-.7V0H123.118A2.116,2.116,0,0,0,121,2.109V9.97c.233-.021.468-.032.706-.032a7.764,7.764,0,0,1,5.985,2.813h7.662a.7.7,0,1,1,0,1.406h-6.732a7.653,7.653,0,0,1,.817,2.813h5.915a.7.7,0,1,1,0,1.406h-5.915A7.731,7.731,0,0,1,126.165,24h11.07a2.116,2.116,0,0,0,2.118-2.109V6.094Zm1.412,3.844H125a.7.7,0,1,1,0-1.406h10.353a.7.7,0,1,1,0,1.406Z" transform="translate(-114.353)" fill="#0e99ff"/>
    <path id="Path_161777" data-name="Path 161777" d="M7.353,242a6.328,6.328,0,1,0,6.353,6.328A6.348,6.348,0,0,0,7.353,242Zm1.882,7.031H7.353a.7.7,0,0,1-.706-.7v-2.812a.706.706,0,0,1,1.412,0v2.109H9.235a.7.7,0,1,1,0,1.406Z" transform="translate(0 -230.656)" fill="#0e99ff"/>
  </g>
</svg>
