<svg xmlns="http://www.w3.org/2000/svg" width="23" height="24" viewBox="0 0 23 24">
  <g id="user-check" transform="translate(-2.208 -2)">
    <path id="Path_161757" data-name="Path 161757" d="M11.076,2A5.442,5.442,0,0,0,5.587,7.393a5.49,5.49,0,0,0,10.978,0A5.442,5.442,0,0,0,11.076,2Z" transform="translate(0.748 0)" fill="#0e99ff"/>
    <path id="Path_161758" data-name="Path 161758" d="M12.369,13.369a.708.708,0,0,0-.532-1.112H10.376a8.1,8.1,0,0,0-8.168,8.026,3.3,3.3,0,0,0,3.333,3.275h6.376a.714.714,0,0,0,.527-1.129,7.793,7.793,0,0,1-.076-9.06Z" transform="translate(0 2.051)" fill="#0e99ff"/>
    <path id="Path_161759" data-name="Path 161759" d="M23.291,17.932a6.212,6.212,0,1,1-6.211-6.1A6.157,6.157,0,0,1,23.291,17.932Zm-2.657-2.319a.889.889,0,0,1,.086,1.27L17.583,20.4a1.545,1.545,0,0,1-2.235.066l-1.762-1.753a.889.889,0,0,1,.008-1.273.928.928,0,0,1,1.3.008l1.07,1.065a.618.618,0,0,0,.894-.026L19.342,15.7a.927.927,0,0,1,1.292-.084Z" transform="translate(1.917 1.966)" fill="#0e99ff" fill-rule="evenodd"/>
  </g>
</svg>
