<svg xmlns="http://www.w3.org/2000/svg" width="19.923" height="20" viewBox="0 0 19.923 20">
  <g id="refresh" transform="translate(-0.046 0)">
    <path id="Path_46196" data-name="Path 46196" d="M10.007,1.667a8.36,8.36,0,0,1,5.935,2.5h-2.6A.833.833,0,0,0,12.507,5h0a.833.833,0,0,0,.833.833h3.452A1.548,1.548,0,0,0,18.34,4.286V.833A.833.833,0,0,0,17.507,0h0a.833.833,0,0,0-.833.833V2.565A9.984,9.984,0,0,0,.049,9.083.839.839,0,0,0,.883,10h0a.818.818,0,0,0,.824-.732,8.345,8.345,0,0,1,8.3-7.6Z" transform="translate(0 0)" fill="#333e7d"/>
    <path id="Path_46197" data-name="Path 46197" d="M19.458,12a.818.818,0,0,0-.824.732A8.321,8.321,0,0,1,4.4,17.833H7A.833.833,0,0,0,7.833,17h0A.833.833,0,0,0,7,16.166H3.547A1.547,1.547,0,0,0,2,17.714v3.452A.833.833,0,0,0,2.833,22h0a.833.833,0,0,0,.833-.833V19.435a9.984,9.984,0,0,0,16.624-6.518A.839.839,0,0,0,19.458,12Z" transform="translate(-0.326 -2)" fill="#333e7d"/>
  </g>
</svg>
