<svg xmlns="http://www.w3.org/2000/svg" width="17.234" height="20" viewBox="0 0 17.234 20">
  <g id="Reports" transform="translate(-60)">
    <path id="Path_94015" data-name="Path 94015" d="M60,.586V15.9a.586.586,0,0,0,.586.586H73.133a.586.586,0,0,0,.586-.586V.586A.586.586,0,0,0,73.133,0H60.586A.586.586,0,0,0,60,.586Zm11.375,12.93H68.031a.586.586,0,0,1,0-1.172h3.344a.586.586,0,0,1,0,1.172ZM62.344,2.969h4.516a.586.586,0,0,1,0,1.172H62.344a.586.586,0,0,1,0-1.172Zm0,2.344h9.031a.586.586,0,0,1,0,1.172H62.344a.586.586,0,0,1,0-1.172Zm0,2.344h9.031a.586.586,0,0,1,0,1.172H62.344a.586.586,0,0,1,0-1.172Zm0,2.344h9.031a.586.586,0,0,1,0,1.172H62.344a.586.586,0,0,1,0-1.172Z" fill="#d4d4d4"/>
    <path id="Path_94016" data-name="Path 94016" d="M151.586,107.445h10.547a.586.586,0,0,0,.586-.586V91.586a.586.586,0,0,0-.586-.586h-1.758v12.344a1.76,1.76,0,0,1-1.758,1.758H151v1.758A.586.586,0,0,0,151.586,107.445Z" transform="translate(-85.484 -87.445)" fill="#d4d4d4"/>
  </g>
</svg>
