<svg xmlns="http://www.w3.org/2000/svg" width="20" height="19" viewBox="0 0 20 19">
  <g id="loan_management" data-name="loan management" transform="translate(-3 -4)">
    <path id="Path_93997" data-name="Path 93997" d="M3.952,6A.954.954,0,0,0,3,6.95v9.975a.954.954,0,0,0,.952.95H4.9V6.95A.954.954,0,0,0,3.952,6Z" transform="translate(0 -1.05)" fill="#d4d4d4"/>
    <path id="Path_93998" data-name="Path 93998" d="M19.286,13.524V5.9a1.9,1.9,0,0,0-1.9-1.9H5A1.9,1.9,0,0,1,6.9,5.9V21.575a.467.467,0,0,0,.252.418.49.49,0,0,0,.49-.024L8.814,21.2l1.167.774a.485.485,0,0,0,.529,0l1.167-.774,1.167.774a.485.485,0,0,0,.529,0l1.167-.774,1.114.741A5.211,5.211,0,0,1,19.3,13.524ZM9.3,18.25a.475.475,0,1,1,.476-.475A.477.477,0,0,1,9.3,18.25Zm0-2.375a.475.475,0,1,1,.476-.475A.477.477,0,0,1,9.3,15.875Zm2.848-5.225a.954.954,0,0,1-.952-.95V8.75a.954.954,0,0,1,.952-.95h.476V7.325a.476.476,0,0,1,.952,0V7.8h.952a.475.475,0,1,1,0,.95H12.143V9.7h1.9a.954.954,0,0,1,.952.95v.95a.954.954,0,0,1-.952.95h-.476v.475a.476.476,0,0,1-.952,0V12.55h-.952a.475.475,0,1,1,0-.95h2.381v-.95Zm.952,7.6h-1.9a.475.475,0,1,1,0-.95h1.9a.475.475,0,1,1,0,.95Zm.952-2.375H11.19a.475.475,0,1,1,0-.95h2.857a.475.475,0,1,1,0,.95Z" transform="translate(-1.048)" fill="#d4d4d4"/>
    <path id="Path_93999" data-name="Path 93999" d="M31.286,26a4.275,4.275,0,1,0,4.286,4.275A4.287,4.287,0,0,0,31.286,26ZM30.1,28.375a.713.713,0,1,1-.714.713A.712.712,0,0,1,30.1,28.375Zm2.381,3.8a.713.713,0,1,1,.714-.713A.712.712,0,0,1,32.476,32.175Zm.576-2.988L30.2,32.037a.468.468,0,0,1-.338.138.488.488,0,0,1-.338-.138.472.472,0,0,1,0-.67l2.857-2.85a.474.474,0,0,1,.671.67Z" transform="translate(-12.571 -11.55)" fill="#d4d4d4"/>
  </g>
</svg>
