<svg xmlns="http://www.w3.org/2000/svg" width="19.479" height="19.001" viewBox="0 0 19.479 19.001">
  <path id="claim" d="M19.324,11.6,16.209,9.848a1.624,1.624,0,0,0-1.609,0L11.484,11.6a1.88,1.88,0,0,0-.927,1.651v.3a6.777,6.777,0,0,0,4.658,6.667.7.7,0,0,0,.377,0,6.777,6.777,0,0,0,4.658-6.667v-.3a1.88,1.88,0,0,0-.927-1.651Zm-4.266,2.876h.692a1.145,1.145,0,0,1,.115,2.285v.485a.462.462,0,0,1-.923,0v-.462h-.577a.462.462,0,1,1,0-.923h1.385a.231.231,0,1,0,0-.462h-.692a1.145,1.145,0,0,1-.115-2.285v-.485a.462.462,0,0,1,.923,0V13.1h.577a.462.462,0,0,1,0,.923H15.058a.231.231,0,1,0,0,.462ZM9.173,13.254A3.261,3.261,0,0,1,10.807,10.4l.535-.3H5.712a.692.692,0,1,1,0-1.385h6.462a.683.683,0,0,1,.665.535l1.08-.609A3.1,3.1,0,0,1,15.4,8.25a.974.974,0,0,1,.231.018V4.789A2.537,2.537,0,0,0,13.1,2.25H4.789A2.537,2.537,0,0,0,2.25,4.789v12a2.537,2.537,0,0,0,2.539,2.539h6.536a8.642,8.642,0,0,1-2.151-5.77ZM5.712,5.942h6.462a.692.692,0,1,1,0,1.385H5.712a.692.692,0,1,1,0-1.385Zm2.769,6.923H5.712a.692.692,0,1,1,0-1.385H8.481a.692.692,0,1,1,0,1.385Z" transform="translate(-1.75 -1.75)" fill="#d4d4d4" stroke="rgba(0,0,0,0)" stroke-width="1"/>
</svg>
