<svg xmlns="http://www.w3.org/2000/svg" width="19" height="20" viewBox="0 0 19 20">
  <g id="gpf" transform="translate(-5 -4)">
    <path id="Path_93989" data-name="Path 93989" d="M14.135,8.75a7.924,7.924,0,0,1,6.73,0l1-2.32A1.714,1.714,0,0,0,22,5.745,1.75,1.75,0,0,0,20.255,4h-5.51A1.75,1.75,0,0,0,13,5.745a1.68,1.68,0,0,0,.14.685Z" transform="translate(-4)" fill="#d4d4d4"/>
    <path id="Path_93990" data-name="Path 93990" d="M26.5,26.5V26h-6v.5a3,3,0,0,1-3,3H17v2h.5a3,3,0,0,1,3,3V35h6v-.5a3,3,0,0,1,3-3H30v-2h-.5A3,3,0,0,1,26.5,26.5Zm-3,6.5A2.5,2.5,0,1,1,26,30.5,2.5,2.5,0,0,1,23.5,33Z" transform="translate(-6 -11)" fill="#d4d4d4"/>
    <path id="Path_93996" data-name="Path 93996" d="M1.5,0A1.5,1.5,0,1,1,0,1.5,1.5,1.5,0,0,1,1.5,0Z" transform="translate(16 18)" fill="#d4d4d4"/>
    <path id="Path_93991" data-name="Path 93991" d="M39.5,26H38v.5a2,2,0,0,0,2,2h.5V27A1,1,0,0,0,39.5,26Z" transform="translate(-16.5 -11)" fill="#d4d4d4"/>
    <path id="Path_93992" data-name="Path 93992" d="M38,41v.5h1.5a1,1,0,0,0,1-1V39H40A2,2,0,0,0,38,41Z" transform="translate(-16.5 -17.5)" fill="#d4d4d4"/>
    <path id="Path_93993" data-name="Path 93993" d="M17.5,39H17v1.5a1,1,0,0,0,1,1h1.5V41A2,2,0,0,0,17.5,39Z" transform="translate(-6 -17.5)" fill="#d4d4d4"/>
    <path id="Path_93994" data-name="Path 93994" d="M12,19h8.2A7,7,0,0,0,6.5,21v4.07A2,2,0,0,0,7,29h3.28A2,2,0,0,1,10,28V21A2,2,0,0,1,12,19Z" transform="translate(0 -5)" fill="#d4d4d4"/>
    <path id="Path_93995" data-name="Path 93995" d="M17,27v1.5h.5a2,2,0,0,0,2-2V26H18A1,1,0,0,0,17,27Z" transform="translate(-6 -11)" fill="#d4d4d4"/>
  </g>
</svg>
