<svg xmlns="http://www.w3.org/2000/svg" width="20" height="20" viewBox="0 0 20 20">
  <g id="trust_management" data-name="trust management" transform="translate(-4.552 -4.242)">
    <path id="Path_94000" data-name="Path 94000" d="M30.679,15.953c-1.148-1.412-2.427-2.565-3.37-2.547s-2.146.973-3.235,2.176c-.211.234-2.5,3.019-2.5,5.353,2.288-.184,3.324.8,4.693.955a1.376,1.376,0,0,1-.477-.458.357.357,0,0,1,.115-.5.366.366,0,0,1,.5.113.942.942,0,0,0,.791.375c.778,0,1.269-.758.426-1.174-.364-.16-.732-.025-1.221-.267a1.288,1.288,0,0,1,.43-2.475V17.2a.364.364,0,0,1,.729,0v.313a1.592,1.592,0,0,1,1.027.648.357.357,0,0,1-.106.5.362.362,0,0,1-.5-.1.95.95,0,0,0-.783-.364c-.816,0-1.219.786-.474,1.149.186.092.881.107,1.21.259a1.259,1.259,0,0,1,.018,2.381c.3,0,.576-.007.78-.025a2.748,2.748,0,0,1,2.084.4.846.846,0,0,1,.237.371q.962-.713,1.738-1.221c.23-1.884-1.031-4.237-2.106-5.555Z" transform="translate(-10.818 -5.862)" fill="#d4d4d4"/>
    <path id="Path_94001" data-name="Path 94001" d="M33.734,6.016a10.806,10.806,0,0,0-.525,1.4.321.321,0,0,1-.062.115,3.079,3.079,0,0,0-1.825-.71,3.756,3.756,0,0,0-2.011.811s0-.007-.007-.011c-.437-.623-.583-1.981-1.286-2.342-.394-.2.306-.728.714-.947.6-.328.969.328,2.15.382.874.043,1.1-.223,2.518-.263,1-.025,1.1.184,1.122.241C34.612,4.953,34.139,5.242,33.734,6.016Z" transform="translate(-14.842)" fill="#d4d4d4"/>
    <path id="Path_94002" data-name="Path 94002" d="M9.981,47.836l-1.3,1.039a.367.367,0,0,1-.512-.053L4.633,44.5a.358.358,0,0,1,.054-.507l1.3-1.039a.367.367,0,0,1,.512.053l3.537,4.323a.358.358,0,0,1-.054.507Z" transform="translate(0 -24.713)" fill="#d4d4d4"/>
    <path id="Path_94003" data-name="Path 94003" d="M29.415,34.872a7.27,7.27,0,0,1-1.049,1.708c-1.756,2.262-4.645,4.539-7.149,4.539H21.2c-1.467-.013-3.2-.8-5.8.159a.2.2,0,0,1-.233-.061l-2.9-3.541a.21.21,0,0,1-.018-.238,4.193,4.193,0,0,1,3.458-2.23c2.675-.193,3.068,1.33,7.138,1.027.415-.034,1.6-.06,1.574.349-.007.36-.966,1.035-1.629,1.3-1.231.494-3.662-.307-4.973.115a.359.359,0,0,0-.235.452.364.364,0,0,0,.457.232c1.125-.352,3.58.448,5.024-.133,1.047-.417,1.037-.691,3.414-2.356a13.033,13.033,0,0,1,2.671-1.578.207.207,0,0,1,.217.045.2.2,0,0,1,.049.214Z" transform="translate(-4.875 -19.421)" fill="#d4d4d4"/>
  </g>
</svg>
