<svg id="Leaves_and_Attendance" data-name="Leaves and Attendance" xmlns="http://www.w3.org/2000/svg" width="18" height="19" viewBox="0 0 18 19">
  <path id="Path_93978" data-name="Path 93978" d="M160.477,242.031a3.268,3.268,0,1,0-3.231-3.267A3.253,3.253,0,0,0,160.477,242.031Zm-1.9-3.782a.54.54,0,0,1,.769,0l.71.718,1.557-1.575a.54.54,0,0,1,.769,0,.555.555,0,0,1,0,.778l-1.942,1.964a.54.54,0,0,1-.769,0l-1.095-1.107A.555.555,0,0,1,158.574,238.249Zm0,0" transform="translate(-151.477 -226.757)" fill="#d4d4d4"/>
  <path id="Path_93979" data-name="Path 93979" d="M0,175.839a1.772,1.772,0,0,0,1.759,1.779H16.241A1.772,1.772,0,0,0,18,175.839V164.731H0Zm9-9.582a4.368,4.368,0,1,1-4.319,4.368A4.348,4.348,0,0,1,9,166.257Zm0,0" transform="translate(0 -158.618)" fill="#d4d4d4"/>
  <path id="Path_93980" data-name="Path 93980" d="M18,44.927v-1.7a1.771,1.771,0,0,0-1.759-1.779h-.992v.988a.544.544,0,1,1-1.088,0v-.988H13.1v.988a.544.544,0,1,1-1.088,0v-.988H6v.988a.544.544,0,1,1-1.088,0v-.988H3.843v.988a.544.544,0,1,1-1.088,0v-.988H1.763A1.771,1.771,0,0,0,0,43.232v1.7Zm0,0" transform="translate(-0.004 -39.915)" fill="#d4d4d4"/>
  <path id="Path_93981" data-name="Path 93981" d="M387.03.55a.544.544,0,1,0-1.088,0v.988h1.088Zm0,0" transform="translate(-371.781)" fill="#d4d4d4"/>
  <path id="Path_93982" data-name="Path 93982" d="M328.237.55a.544.544,0,1,0-1.088,0v.988h1.088Zm0,0" transform="translate(-315.145)" fill="#d4d4d4"/>
  <path id="Path_93983" data-name="Path 93983" d="M134.874.55a.544.544,0,1,0-1.088,0v.988h1.088Zm0,0" transform="translate(-128.877)" fill="#d4d4d4"/>
  <path id="Path_93984" data-name="Path 93984" d="M76.084.55A.544.544,0,1,0,75,.55v.988h1.088Zm0,0" transform="translate(-72.244)" fill="#d4d4d4"/>
</svg>
