<svg xmlns="http://www.w3.org/2000/svg" width="17.425" height="15.573" viewBox="0 0 17.425 15.573">
  <g id="Employees" transform="translate(0 -22.25)">
    <path id="XMLID_440_" d="M188.146,28.8a4.082,4.082,0,0,0,1.605.3,3.423,3.423,0,0,0,0-6.845,4.113,4.113,0,0,0-1.605.347,5.411,5.411,0,0,1,.932,1.422,5.06,5.06,0,0,1,0,3.308A5.686,5.686,0,0,1,188.146,28.8Z" transform="translate(-178.6)" fill="#d4d4d4"/>
    <path id="XMLID_441_" d="M203.663,177.779a7.968,7.968,0,0,1,1.884,1.723,7.862,7.862,0,0,1,1.381,3.7,7.965,7.965,0,0,1,.042.818,2.443,2.443,0,0,1-.141.818h3.141a.818.818,0,0,0,.818-.818,6.28,6.28,0,0,0-6.273-6.273C204.312,177.75,203.863,177.76,203.663,177.779Z" transform="translate(-193.363 -147.018)" fill="#d4d4d4"/>
    <path id="XMLID_443_" d="M55.673,29.1a3.423,3.423,0,1,0-3.423-3.423A3.419,3.419,0,0,0,55.673,29.1Z" transform="translate(-49.4)" fill="#d4d4d4"/>
    <path id="XMLID_444_" d="M.818,184.841H11.727a.818.818,0,0,0,.818-.818A6.293,6.293,0,0,0,9,178.374a6.272,6.272,0,0,0-9,5.649A.818.818,0,0,0,.818,184.841Z" transform="translate(0 -147.018)" fill="#d4d4d4"/>
  </g>
</svg>
