<svg xmlns="http://www.w3.org/2000/svg" width="20.481" height="22" viewBox="0 0 20.481 22">
  <path id="pension_fixation" data-name="pension fixation" d="M67.787,29.048h2.44a.266.266,0,0,1,.262.2l.386,1.574a.133.133,0,0,1-.131.165H67.27a.133.133,0,0,1-.131-.165l.386-1.574A.266.266,0,0,1,67.787,29.048Zm-9.259-13.8.959.729a2.141,2.141,0,0,0,1.63.432l4.534-1.225a1.34,1.34,0,0,0,.945-1.64.992.992,0,0,0-1.212-.688l-2.422.654a.356.356,0,1,1-.188-.687L65.2,12.17a1.711,1.711,0,0,1,2.092,1.189,1.661,1.661,0,0,1,.053.585L71.108,16.1a1.225,1.225,0,0,0,1.662-.442,1.206,1.206,0,0,0-.445-1.65L65.831,10.29a2.235,2.235,0,0,0-1.673-.219l-2.6.591a2.412,2.412,0,0,1-1.739-.208Zm5.552,2.438a.991.991,0,0,1-1.983,0v-.7c0-.037,0-.073,0-.109l2.1-.569a1.916,1.916,0,0,0-.124.678v.7Zm5.846-1.439a3.884,3.884,0,0,1,.072.744V28.336H68.015V16.992a1.962,1.962,0,0,0-1.148-1.774,2.086,2.086,0,0,0,.329-.534Zm-12.184-.841a.269.269,0,0,1-.328.188l-1.079-.287a.267.267,0,0,1-.189-.326l1.564-5.793A.269.269,0,0,1,58.037,9l1.079.287a.267.267,0,0,1,.189.326Zm-5.291,12.83V29.38c0,.387.444.765,1.161,1.065a9.587,9.587,0,0,0,6.39,0c.717-.3,1.161-.678,1.161-1.065V28.359q-.123.023-.248.039a4.588,4.588,0,0,1-.772.379,10.432,10.432,0,0,1-6.627.022,4.268,4.268,0,0,1-1.064-.561Zm4.273-7.6a8.513,8.513,0,0,0-3.112.547c-1.545.645-1.545,1.484,0,2.129a7.376,7.376,0,0,0,1.939.475c0-.018,0-.035,0-.053A4.665,4.665,0,0,1,56.724,20.638Zm-1.108,3.874a8.289,8.289,0,0,1-2.281-.544,3.978,3.978,0,0,1-.883-.495v1.294c.109.37.594.719,1.316.99a8.434,8.434,0,0,0,2.5.469A4.653,4.653,0,0,1,55.615,24.512Zm-3.164,1.349v1.283c.109.37.594.719,1.316.99a9.933,9.933,0,0,0,5.469.189,4.741,4.741,0,0,1-2.406-1.372,9.641,9.641,0,0,1-3.316-.528,4.268,4.268,0,0,1-1.064-.561Zm7.838-4.679a2.553,2.553,0,1,0,2.573,2.553A2.563,2.563,0,0,0,60.289,21.182Zm.359,4.114v.1a.359.359,0,0,1-.718,0v-.08a1,1,0,0,1-.568-.379.354.354,0,0,1,.08-.5.36.36,0,0,1,.5.079.261.261,0,0,0,.219.112h.2a.267.267,0,1,0,0-.534h-.14a.979.979,0,0,1-.289-1.917v-.1a.359.359,0,0,1,.718,0v.08a1,1,0,0,1,.568.379.354.354,0,0,1-.08.5.36.36,0,0,1-.5-.079.261.261,0,0,0-.219-.112h-.2a.267.267,0,1,0,0,.534h.14a.979.979,0,0,1,.289,1.917Zm-.359-5.551a3.991,3.991,0,1,0,4.02,3.99A4.005,4.005,0,0,0,60.289,19.745Zm0,7.256a3.266,3.266,0,1,1,3.29-3.266A3.278,3.278,0,0,1,60.289,27Z" transform="translate(-52.451 -8.992)" fill="#d4d4d4" fill-rule="evenodd"/>
</svg>
