<svg xmlns="http://www.w3.org/2000/svg" width="18" height="18" viewBox="0 0 18 18">
  <g id="Dashboard" transform="translate(-2.25 -2.25)">
    <path id="Path_94017" data-name="Path 94017" d="M5.942,13.558a1.615,1.615,0,1,1,1.615,1.615A1.615,1.615,0,0,1,5.942,13.558ZM2.25,8.25h18v9.923a2.077,2.077,0,0,1-2.077,2.077H4.327A2.077,2.077,0,0,1,2.25,18.173Zm14.215,7.615a.692.692,0,0,0,1.385,0V13.1a.692.692,0,0,0-1.385,0Zm-2.215,0a.692.692,0,0,0,1.385,0V11.25a.692.692,0,1,0-1.385,0Zm-2.308,0a.692.692,0,0,0,1.385,0V14.019a.692.692,0,1,0-1.385,0ZM4.558,13.558a3,3,0,1,0,3-3A3,3,0,0,0,4.558,13.558ZM20.25,4.327V6.865h-18V4.327A2.077,2.077,0,0,1,4.327,2.25H18.173A2.077,2.077,0,0,1,20.25,4.327ZM6.865,4.788A.7.7,0,0,0,6.173,4.1H5.25a.692.692,0,0,0,0,1.385h.923a.7.7,0,0,0,.692-.692Zm2.769,0A.7.7,0,0,0,8.942,4.1H8.019a.692.692,0,0,0,0,1.385h.923a.7.7,0,0,0,.692-.692Z" transform="translate(0 0)" fill="#0e99ff"/>
  </g>
</svg>
