<svg xmlns="http://www.w3.org/2000/svg" width="22" height="24" viewBox="0 0 22 24">
  <g id="new_pension_scheme" data-name="new pension scheme" transform="translate(-15.807 -8)">
    <path id="Path_93985" data-name="Path 93985" d="M65,10.145a2.157,2.157,0,1,1,2.157,2.145A2.151,2.151,0,0,1,65,10.145Z" transform="translate(-38.024 0)" fill="#d4d4d4"/>
    <path id="Path_93986" data-name="Path 93986" d="M37.007,70.5a2.28,2.28,0,0,0-1.133.3.245.245,0,0,1-.294-.033l-3.44-3.422a.225.225,0,0,1,.009-.328l1.787-1.587a3.188,3.188,0,0,1,2.117-.8h1.7a2.279,2.279,0,0,1,1.19.335l.162.1a3.191,3.191,0,0,0,1.666.469h1.84A1.585,1.585,0,0,1,44.2,67.116a.226.226,0,0,1-.227.226H38.867a.452.452,0,1,0,0,.9h5.108a1.132,1.132,0,0,0,1.135-1.129,2.467,2.467,0,0,0-.155-.864.242.242,0,0,1,.113-.3l1.619-.805a1.36,1.36,0,0,0,.524-.46l.8-1.192a1.621,1.621,0,0,1,2.2-.475.354.354,0,0,1,.124.487,31.659,31.659,0,0,1-2.277,3.326A29.856,29.856,0,0,1,44.758,70a2.163,2.163,0,0,1-1.4.5Z" transform="translate(-12.573 -42.405)" fill="#d4d4d4"/>
    <path id="Path_93987" data-name="Path 93987" d="M15.875,83.24a.225.225,0,0,1,0-.324l1.736-1.655a.228.228,0,0,1,.318,0l5.4,5.375a.225.225,0,0,1,0,.319L21.683,88.6a.228.228,0,0,1-.32,0Z" transform="translate(0 -56.668)" fill="#d4d4d4"/>
    <path id="Path_93988" data-name="Path 93988" d="M59.424,27.639a.23.23,0,0,0-.229-.228,7.646,7.646,0,0,1-1.8-.2l-.008,0h0a3.328,3.328,0,0,1-1.155-.69.228.228,0,0,0-.321,0,.225.225,0,0,0,0,.319,3.591,3.591,0,0,0,1.206.74.226.226,0,0,1,.131.2l.027,4.337a.659.659,0,0,1-.4.611,1.735,1.735,0,0,1-1.606-.147,2.714,2.714,0,0,1-.878-.887,3.794,3.794,0,0,1-.362-1.178c-.064-.361-.109-.735-.136-1.029a.227.227,0,0,0-.066-.141l-.652-.649a2.252,2.252,0,0,1-.665-1.6V24.915a2.982,2.982,0,0,1,.528-1.529,6.206,6.206,0,0,1,.88-1.08.646.646,0,0,1,.706-.135,3.766,3.766,0,0,1,.85.572,8.766,8.766,0,0,1,.653.615,5.835,5.835,0,0,0,3.6,2.773l.036.009a.686.686,0,0,1,.575.673V32.48a.454.454,0,0,1-.908,0Z" transform="translate(-28.363 -10.931)" fill="#d4d4d4"/>
  </g>
</svg>
