<svg xmlns="http://www.w3.org/2000/svg" width="18.999" height="16" viewBox="0 0 18.999 16">
  <g id="no-visibility" transform="translate(-1.025 -2)">
    <path id="Path_93940" data-name="Path 93940" d="M5.331,15.789a1.254,1.254,0,0,1-.519-.168A12.83,12.83,0,0,1,1.09,11.074a.9.9,0,0,1,0-.674C1.176,10.147,3.946,4,10.525,4a9.433,9.433,0,0,1,4.5,1.179c.433.253.4.669.14,1.09s-.573.678-1.005.426a6.738,6.738,0,0,0-3.636-1.011c-4.674,0-7.1,3.874-7.7,5.053a9.984,9.984,0,0,0,3.03,3.537.772.772,0,0,1,.143,1.089.845.845,0,0,1-.663.427Z" transform="translate(0 -0.316)" fill="#a7a7a7"/>
    <path id="Path_93943" data-name="Path 93943" d="M2.866,18a.8.8,0,0,1-.606-.253.8.8,0,0,1,0-1.179L16.975,2.253a.853.853,0,0,1,1.212,0,.8.8,0,0,1,0,1.179L3.472,17.747A.8.8,0,0,1,2.866,18Z" transform="translate(-0.131)" fill="#a7a7a7"/>
    <path id="Path_93944" data-name="Path 93944" d="M11.427,17.947a10.052,10.052,0,0,1-3.116-.505.869.869,0,0,1-.519-1.095.908.908,0,0,1,1.125-.505,8.245,8.245,0,0,0,2.51.421c4.674,0,7.1-3.874,7.7-5.053a9.733,9.733,0,0,0-2.164-2.779.8.8,0,0,1,0-1.179.853.853,0,0,1,1.212,0,11.4,11.4,0,0,1,2.683,3.705.9.9,0,0,1,0,.674C20.776,11.8,18.006,17.947,11.427,17.947Z" transform="translate(-0.902 -0.789)" fill="#a7a7a7"/>
    <path id="Union_5" data-name="Union 5" d="M11381.024,4589.623a3.624,3.624,0,1,1,3.624,3.624A3.629,3.629,0,0,1,11381.024,4589.623Zm1.609,0a2.015,2.015,0,1,0,2.015-2.012A2.016,2.016,0,0,0,11382.634,4589.623Z" transform="translate(-11374.29 -4579.135)" fill="#a7a7a7"/>
  </g>
</svg>
